<svg xmlns="http://www.w3.org/2000/svg" x="0px" y="0px" width="100" height="100" viewBox="0,0,255.99538,255.99538">
  <g fill="none" fill-rule="nonzero" stroke="none" stroke-width="1" stroke-linecap="butt" stroke-linejoin="miter" stroke-miterlimit="10" stroke-dasharray="" stroke-dashoffset="0" font-family="none" font-weight="none" font-size="none" text-anchor="none" style="mix-blend-mode: normal">
    <g transform="scale(5.33333,5.33333)">
      <path d="M43,11h-38c-2.209,0 -4,1.791 -4,4v16c0,2.209 1.791,4 4,4h19l8,4l-2,-4h13c2.209,0 4,-1.791 4,-4v-16c0,-2.209 -1.791,-4 -4,-4z" fill="#685ddb"></path>
      <path d="M40.443,19c0.041,0 0.132,0.005 0.277,0.038c0.342,0.077 0.559,0.198 0.82,0.686c0.31,0.559 0.46,1.283 0.46,2.215c0,1.398 -0.317,2.639 -0.973,3.802c-0.706,1.259 -1.222,1.259 -1.47,1.259c-0.041,0 -0.132,-0.005 -0.277,-0.038c-0.342,-0.077 -0.559,-0.198 -0.809,-0.666c-0.313,-0.574 -0.471,-1.333 -0.471,-2.253c0,-1.399 0.314,-2.63 0.963,-3.765c0.728,-1.278 1.255,-1.278 1.48,-1.278M40.443,16c-1.67,0 -3.026,0.931 -4.087,2.793c-0.904,1.582 -1.356,3.332 -1.356,5.25c0,1.434 0.278,2.662 0.835,3.686c0.626,1.173 1.548,1.88 2.783,2.16c0.33,0.074 0.643,0.111 0.939,0.111c1.687,0 3.043,-0.931 4.087,-2.793c0.904,-1.601 1.356,-3.351 1.356,-5.268c0,-1.452 -0.278,-2.662 -0.835,-3.668c-0.626,-1.173 -1.548,-1.88 -2.783,-2.16c-0.33,-0.074 -0.643,-0.111 -0.939,-0.111zM28.443,19c0.041,0 0.132,0.005 0.268,0.036c0.333,0.076 0.571,0.207 0.829,0.689c0.31,0.558 0.46,1.282 0.46,2.214c0,1.398 -0.317,2.639 -0.973,3.802c-0.706,1.259 -1.222,1.259 -1.47,1.259c-0.041,0 -0.132,-0.005 -0.277,-0.038c-0.342,-0.077 -0.559,-0.198 -0.809,-0.666c-0.313,-0.574 -0.471,-1.333 -0.471,-2.253c0,-1.399 0.314,-2.63 0.963,-3.765c0.728,-1.278 1.255,-1.278 1.48,-1.278M28.443,16c-1.67,0 -3.026,0.931 -4.087,2.793c-0.904,1.582 -1.356,3.332 -1.356,5.25c0,1.434 0.278,2.662 0.835,3.686c0.626,1.173 1.548,1.88 2.783,2.16c0.33,0.074 0.643,0.111 0.939,0.111c1.687,0 3.043,-0.931 4.087,-2.793c0.904,-1.601 1.356,-3.351 1.356,-5.268c0,-1.452 -0.278,-2.662 -0.835,-3.668c-0.626,-1.173 -1.565,-1.88 -2.783,-2.16c-0.33,-0.074 -0.643,-0.111 -0.939,-0.111zM18.5,32c-0.421,0 -0.832,-0.178 -1.123,-0.505c-2.196,-2.479 -3.545,-5.735 -4.34,-8.343c-1.144,2.42 -2.688,5.515 -4.251,8.119c-0.309,0.515 -0.894,0.792 -1.491,0.715c-0.596,-0.083 -1.085,-0.513 -1.242,-1.093c-2.212,-8.127 -3.007,-13.95 -3.039,-14.194c-0.11,-0.82 0.466,-1.575 1.286,-1.686c0.831,-0.108 1.576,0.465 1.687,1.286c0.007,0.049 0.571,4.177 2.033,10.199c2.218,-4.208 4.078,-8.535 4.102,-8.59c0.267,-0.62 0.919,-0.989 1.58,-0.895c0.668,0.09 1.194,0.615 1.285,1.283c0.007,0.052 0.542,3.825 2.245,7.451c0.719,-7.166 2.873,-10.839 2.982,-11.021c0.427,-0.711 1.35,-0.941 2.058,-0.515c0.711,0.426 0.941,1.348 0.515,2.058c-0.025,0.044 -2.787,4.846 -2.787,14.231c0,0.623 -0.386,1.182 -0.968,1.402c-0.174,0.066 -0.353,0.098 -0.532,0.098z" fill="#ffffff"></path>
    </g>
  </g>
</svg>